<svg width="46" height="46" viewBox="0 0 46 46" fill="none" xmlns="http://www.w3.org/2000/svg">
<circle cx="23" cy="23" r="23" fill="#545454"/>
<path fill-rule="evenodd" clip-rule="evenodd" d="M23 3C34.0457 3 43 11.9543 43 23C43 34.0457 34.0457 43 23 43C11.9543 43 3 34.0457 3 23C3 11.9543 11.9543 3 23 3ZM28.8333 24.6123C26.6813 24.6123 24.8927 26.113 24.426 28.1177C23.337 27.652 22.326 27.7813 21.574 28.1047C21.0943 26.1 19.3057 24.6123 17.1667 24.6123C14.6647 24.6123 12.6297 26.643 12.6297 29.1397C12.6297 31.636 14.6647 33.6667 17.1667 33.6667C19.552 33.6667 21.4833 31.83 21.6647 29.5017C22.0537 29.23 23.078 28.7257 24.3353 29.5277C24.5427 31.843 26.461 33.6667 28.8333 33.6667C31.3353 33.6667 33.3703 31.636 33.3703 29.1397C33.3703 26.643 31.3353 24.6123 28.8333 24.6123V24.6123ZM17.1667 25.9057C18.9557 25.9057 20.4073 27.3547 20.4073 29.1397C20.4073 30.9247 18.9557 32.373 17.1667 32.373C15.3777 32.373 13.926 30.9247 13.926 29.1397C13.926 27.3547 15.3777 25.906 17.1667 25.906V25.9057ZM28.8333 25.9057C30.6223 25.9057 32.074 27.3547 32.074 29.1397C32.074 30.9247 30.6223 32.373 28.8333 32.373C27.0443 32.373 25.5927 30.9247 25.5927 29.1397C25.5927 27.3547 27.0443 25.906 28.8333 25.906V25.9057ZM34.6667 22H11.3333V23.3333H34.6667V22ZM27.2913 12.78C27.0247 12.1733 26.336 11.8533 25.6963 12.0657L23 12.9713L20.2907 12.0657L20.2267 12.0463C19.584 11.8687 18.9087 12.2163 18.6703 12.842L15.7147 20.6667H30.2853L27.3167 12.842L27.2913 12.78Z" fill="#DADCE0"/>
</svg>
